<svg xmlns="http://www.w3.org/2000/svg" version="1.1" xmlns:xlink="http://www.w3.org/1999/xlink" xmlns:svgjs="http://svgjs.dev/svgjs" width="1440" height="560" preserveAspectRatio="none" viewBox="0 0 1440 560">
    <g mask="url(&quot;#SvgjsMask1169&quot;)" fill="none">
        <g mask="url(&quot;#SvgjsMask1170&quot;)">
            <path d="M-14 294L14 294L42 294" stroke="rgba(92, 62, 163, 1)" stroke-width="4.67"></path>
            <path d="M35 294 a7 7 0 1 0 14 0 a7 7 0 1 0 -14 0z" fill="rgba(92, 62, 163, 1)"></path>
            <path d="M70 266L98 294L126 294L154 294M126 266L154 238L182 238M182 266L210 266M-14 266L14 266L42 266L70 266L98 266L126 266L154 266L182 266L210 238L238 238" stroke="rgba(92, 62, 163, 1)" stroke-width="4.67"></path>
            <path d="M231 238 a7 7 0 1 0 14 0 a7 7 0 1 0 -14 0zM147 294 a7 7 0 1 0 14 0 a7 7 0 1 0 -14 0zM175 238 a7 7 0 1 0 14 0 a7 7 0 1 0 -14 0zM203 266 a7 7 0 1 0 14 0 a7 7 0 1 0 -14 0z" fill="rgba(92, 62, 163, 1)"></path>
            <path d="M882 210L910 238L938 238L966 238L994 238M686 210L714 238L742 238L770 238L798 238M14 238L42 238L70 238L98 238L126 238M798 210L826 182M1050 210L1078 238L1106 238M770 210L798 182M322 210L350 238L378 266L406 266L434 266L462 266L490 266L518 266L546 294L574 322L602 322L630 322L658 322M910 210L938 182L966 182M378 210L406 182L434 182L462 182L490 182L518 182L546 182L574 182L602 182M546 210L574 238L602 238L630 238M-14 238L14 238L42 210L70 210L98 210L126 210L154 210L182 210L210 210L238 210L266 210L294 210L322 210L350 210L378 210L406 210L434 210L462 210L490 210L518 210L546 210L574 210L602 210L630 210L658 210L686 210L714 210L742 210L770 210L798 210L826 210L854 210L882 210L910 210L938 210L966 210L994 210L1022 210L1050 210L1078 210" stroke="rgba(92, 62, 163, 1)" stroke-width="4.67"></path>
            <path d="M1071 210 a7 7 0 1 0 14 0 a7 7 0 1 0 -14 0zM987 238 a7 7 0 1 0 14 0 a7 7 0 1 0 -14 0zM791 238 a7 7 0 1 0 14 0 a7 7 0 1 0 -14 0zM119 238 a7 7 0 1 0 14 0 a7 7 0 1 0 -14 0zM819 182 a7 7 0 1 0 14 0 a7 7 0 1 0 -14 0zM1099 238 a7 7 0 1 0 14 0 a7 7 0 1 0 -14 0zM791 182 a7 7 0 1 0 14 0 a7 7 0 1 0 -14 0zM651 322 a7 7 0 1 0 14 0 a7 7 0 1 0 -14 0zM959 182 a7 7 0 1 0 14 0 a7 7 0 1 0 -14 0zM595 182 a7 7 0 1 0 14 0 a7 7 0 1 0 -14 0zM623 238 a7 7 0 1 0 14 0 a7 7 0 1 0 -14 0z" fill="rgba(92, 62, 163, 1)"></path>
            <path d="M14 350L42 350L70 350M210 378L238 406L266 406L294 406L322 406L350 406L378 406L406 406M294 378L322 350L350 350M154 378L182 350L210 350L238 350L266 350M434 378L462 350L490 350M-14 350L14 350L42 378L70 378L98 378L126 378L154 378L182 378L210 378L238 378L266 378L294 378L322 378L350 378L378 378L406 378L434 378L462 378L490 378L518 378L546 350" stroke="rgba(155, 121, 234, 1)" stroke-width="4.67"></path>
            <path d="M539 350 a7 7 0 1 0 14 0 a7 7 0 1 0 -14 0zM63 350 a7 7 0 1 0 14 0 a7 7 0 1 0 -14 0zM399 406 a7 7 0 1 0 14 0 a7 7 0 1 0 -14 0zM343 350 a7 7 0 1 0 14 0 a7 7 0 1 0 -14 0zM259 350 a7 7 0 1 0 14 0 a7 7 0 1 0 -14 0zM483 350 a7 7 0 1 0 14 0 a7 7 0 1 0 -14 0z" fill="rgba(155, 121, 234, 1)"></path>
            <path d="M434 154L462 126L490 126L518 126L546 126M658 154L686 182L714 182L742 182L770 182M322 182L350 182L378 182M1022 182L1050 154L1078 154L1106 154M294 182L322 154L350 126M910 154L938 126L966 126L994 126L1022 126M966 154L994 154L1022 154M770 154L798 126L826 126L854 126L882 126L910 126M882 154L910 182M574 154L602 126L630 126L658 126L686 126L714 126L742 126M-14 210L14 210L42 182L70 182L98 182L126 182L154 182L182 182L210 182L238 182L266 182L294 182L322 182L350 154L378 154L406 154L434 154L462 154L490 154L518 154L546 154L574 154L602 154L630 154L658 154L686 154L714 154L742 154L770 154L798 154L826 154L854 154L882 154L910 154L938 154L966 154L994 182L1022 182L1050 182L1078 182L1106 182" stroke="rgba(92, 62, 163, 1)" stroke-width="4.67"></path>
            <path d="M1099 182 a7 7 0 1 0 14 0 a7 7 0 1 0 -14 0zM539 126 a7 7 0 1 0 14 0 a7 7 0 1 0 -14 0zM763 182 a7 7 0 1 0 14 0 a7 7 0 1 0 -14 0zM371 182 a7 7 0 1 0 14 0 a7 7 0 1 0 -14 0zM1099 154 a7 7 0 1 0 14 0 a7 7 0 1 0 -14 0zM343 126 a7 7 0 1 0 14 0 a7 7 0 1 0 -14 0zM1015 126 a7 7 0 1 0 14 0 a7 7 0 1 0 -14 0zM1015 154 a7 7 0 1 0 14 0 a7 7 0 1 0 -14 0zM903 126 a7 7 0 1 0 14 0 a7 7 0 1 0 -14 0zM903 182 a7 7 0 1 0 14 0 a7 7 0 1 0 -14 0zM735 126 a7 7 0 1 0 14 0 a7 7 0 1 0 -14 0z" fill="rgba(92, 62, 163, 1)"></path>
            <path d="M602 462L630 434L658 434L686 434L714 434L742 434L770 434L798 434M546 462L574 434L602 434L630 406M938 462L966 490L994 490L1022 490L1050 490L1078 490L1106 490M70 406L98 434M490 434L518 406L546 406L574 406L602 406L630 378L658 378L686 350L714 350L742 350M910 462L938 490L966 518M882 462L910 434L938 434L966 434L994 434M742 462L770 490L798 490L826 490L854 490L882 490L910 490L938 518M826 462L854 434L882 434M-14 378L14 378L42 406L70 406L98 406L126 406L154 406L182 406L210 434L238 434L266 434L294 434L322 434L350 434L378 434L406 434L434 434L462 434L490 434L518 434L546 462L574 462L602 462L630 462L658 462L686 462L714 462L742 462L770 462L798 462L826 462L854 462L882 462L910 462L938 462L966 462L994 462" stroke="rgba(92, 62, 163, 1)" stroke-width="4.67"></path>
            <path d="M987 462 a7 7 0 1 0 14 0 a7 7 0 1 0 -14 0zM791 434 a7 7 0 1 0 14 0 a7 7 0 1 0 -14 0zM623 406 a7 7 0 1 0 14 0 a7 7 0 1 0 -14 0zM1099 490 a7 7 0 1 0 14 0 a7 7 0 1 0 -14 0zM91 434 a7 7 0 1 0 14 0 a7 7 0 1 0 -14 0zM735 350 a7 7 0 1 0 14 0 a7 7 0 1 0 -14 0zM959 518 a7 7 0 1 0 14 0 a7 7 0 1 0 -14 0zM987 434 a7 7 0 1 0 14 0 a7 7 0 1 0 -14 0zM931 518 a7 7 0 1 0 14 0 a7 7 0 1 0 -14 0zM875 434 a7 7 0 1 0 14 0 a7 7 0 1 0 -14 0z" fill="rgba(92, 62, 163, 1)"></path>
            <path d="M602 98L630 70L658 70M882 98L910 70L938 70L966 70L994 70M462 98L490 70L518 70M518 98L546 98L574 126M770 98L798 70L826 70M210 154L238 126L266 126M98 154L126 126M266 154L294 154M-14 182L14 182L42 154L70 154L98 154L126 154L154 154L182 154L210 154L238 154L266 154L294 126L322 98L350 98L378 126L406 126L434 98L462 98L490 98L518 98L546 70L574 70L602 98L630 98L658 98L686 98L714 98L742 98L770 98L798 98L826 98L854 98L882 98L910 98" stroke="rgba(155, 121, 234, 1)" stroke-width="4.67"></path>
            <path d="M903 98 a7 7 0 1 0 14 0 a7 7 0 1 0 -14 0zM651 70 a7 7 0 1 0 14 0 a7 7 0 1 0 -14 0zM987 70 a7 7 0 1 0 14 0 a7 7 0 1 0 -14 0zM511 70 a7 7 0 1 0 14 0 a7 7 0 1 0 -14 0zM567 126 a7 7 0 1 0 14 0 a7 7 0 1 0 -14 0zM819 70 a7 7 0 1 0 14 0 a7 7 0 1 0 -14 0zM259 126 a7 7 0 1 0 14 0 a7 7 0 1 0 -14 0zM119 126 a7 7 0 1 0 14 0 a7 7 0 1 0 -14 0zM287 154 a7 7 0 1 0 14 0 a7 7 0 1 0 -14 0z" fill="rgba(155, 121, 234, 1)"></path>
            <path d="M490 462L518 490L546 518L574 518M42 434L70 434M238 462L266 490L294 490L322 490L350 490L378 490M210 462L238 490M154 434L182 462L210 490L238 518L266 518M126 434L154 462L182 490L210 518M-14 406L14 406L42 434L70 462L98 462L126 434L154 434L182 434L210 462L238 462L266 462L294 462L322 462L350 462L378 462L406 462L434 462L462 462L490 462L518 462L546 490L574 490L602 490L630 490L658 490" stroke="rgba(92, 62, 163, 1)" stroke-width="4.67"></path>
            <path d="M651 490 a7 7 0 1 0 14 0 a7 7 0 1 0 -14 0zM567 518 a7 7 0 1 0 14 0 a7 7 0 1 0 -14 0zM63 434 a7 7 0 1 0 14 0 a7 7 0 1 0 -14 0zM371 490 a7 7 0 1 0 14 0 a7 7 0 1 0 -14 0zM231 490 a7 7 0 1 0 14 0 a7 7 0 1 0 -14 0zM259 518 a7 7 0 1 0 14 0 a7 7 0 1 0 -14 0zM203 518 a7 7 0 1 0 14 0 a7 7 0 1 0 -14 0z" fill="rgba(92, 62, 163, 1)"></path>
            <path d="M70 98L98 126M154 98L182 126L210 126M210 98L238 70L266 70L294 70M-14 154L14 154L42 126L70 98L98 98L126 98L154 98L182 98L210 98L238 98L266 98L294 98L322 70L350 70" stroke="rgba(92, 62, 163, 1)" stroke-width="4.67"></path>
            <path d="M343 70 a7 7 0 1 0 14 0 a7 7 0 1 0 -14 0zM91 126 a7 7 0 1 0 14 0 a7 7 0 1 0 -14 0zM203 126 a7 7 0 1 0 14 0 a7 7 0 1 0 -14 0zM287 70 a7 7 0 1 0 14 0 a7 7 0 1 0 -14 0z" fill="rgba(92, 62, 163, 1)"></path>
        </g>
    </g>
    <defs>
        <mask id="SvgjsMask1169">
            <rect width="1440" height="560" fill="#ffffff"></rect>
        </mask>
        <mask id="SvgjsMask1170">
            <rect width="1440" height="560" fill="white"></rect>
            <path d="M38.5 294 a3.5 3.5 0 1 0 7 0 a3.5 3.5 0 1 0 -7 0z" fill="black"></path>
            <path d="M234.5 238 a3.5 3.5 0 1 0 7 0 a3.5 3.5 0 1 0 -7 0zM150.5 294 a3.5 3.5 0 1 0 7 0 a3.5 3.5 0 1 0 -7 0zM178.5 238 a3.5 3.5 0 1 0 7 0 a3.5 3.5 0 1 0 -7 0zM206.5 266 a3.5 3.5 0 1 0 7 0 a3.5 3.5 0 1 0 -7 0z" fill="black"></path>
            <path d="M1074.5 210 a3.5 3.5 0 1 0 7 0 a3.5 3.5 0 1 0 -7 0zM990.5 238 a3.5 3.5 0 1 0 7 0 a3.5 3.5 0 1 0 -7 0zM794.5 238 a3.5 3.5 0 1 0 7 0 a3.5 3.5 0 1 0 -7 0zM122.5 238 a3.5 3.5 0 1 0 7 0 a3.5 3.5 0 1 0 -7 0zM822.5 182 a3.5 3.5 0 1 0 7 0 a3.5 3.5 0 1 0 -7 0zM1102.5 238 a3.5 3.5 0 1 0 7 0 a3.5 3.5 0 1 0 -7 0zM794.5 182 a3.5 3.5 0 1 0 7 0 a3.5 3.5 0 1 0 -7 0zM654.5 322 a3.5 3.5 0 1 0 7 0 a3.5 3.5 0 1 0 -7 0zM962.5 182 a3.5 3.5 0 1 0 7 0 a3.5 3.5 0 1 0 -7 0zM598.5 182 a3.5 3.5 0 1 0 7 0 a3.5 3.5 0 1 0 -7 0zM626.5 238 a3.5 3.5 0 1 0 7 0 a3.5 3.5 0 1 0 -7 0z" fill="black"></path>
            <path d="M542.5 350 a3.5 3.5 0 1 0 7 0 a3.5 3.5 0 1 0 -7 0zM66.5 350 a3.5 3.5 0 1 0 7 0 a3.5 3.5 0 1 0 -7 0zM402.5 406 a3.5 3.5 0 1 0 7 0 a3.5 3.5 0 1 0 -7 0zM346.5 350 a3.5 3.5 0 1 0 7 0 a3.5 3.5 0 1 0 -7 0zM262.5 350 a3.5 3.5 0 1 0 7 0 a3.5 3.5 0 1 0 -7 0zM486.5 350 a3.5 3.5 0 1 0 7 0 a3.5 3.5 0 1 0 -7 0z" fill="black"></path>
            <path d="M1102.5 182 a3.5 3.5 0 1 0 7 0 a3.5 3.5 0 1 0 -7 0zM542.5 126 a3.5 3.5 0 1 0 7 0 a3.5 3.5 0 1 0 -7 0zM766.5 182 a3.5 3.5 0 1 0 7 0 a3.5 3.5 0 1 0 -7 0zM374.5 182 a3.5 3.5 0 1 0 7 0 a3.5 3.5 0 1 0 -7 0zM1102.5 154 a3.5 3.5 0 1 0 7 0 a3.5 3.5 0 1 0 -7 0zM346.5 126 a3.5 3.5 0 1 0 7 0 a3.5 3.5 0 1 0 -7 0zM1018.5 126 a3.5 3.5 0 1 0 7 0 a3.5 3.5 0 1 0 -7 0zM1018.5 154 a3.5 3.5 0 1 0 7 0 a3.5 3.5 0 1 0 -7 0zM906.5 126 a3.5 3.5 0 1 0 7 0 a3.5 3.5 0 1 0 -7 0zM906.5 182 a3.5 3.5 0 1 0 7 0 a3.5 3.5 0 1 0 -7 0zM738.5 126 a3.5 3.5 0 1 0 7 0 a3.5 3.5 0 1 0 -7 0z" fill="black"></path>
            <path d="M990.5 462 a3.5 3.5 0 1 0 7 0 a3.5 3.5 0 1 0 -7 0zM794.5 434 a3.5 3.5 0 1 0 7 0 a3.5 3.5 0 1 0 -7 0zM626.5 406 a3.5 3.5 0 1 0 7 0 a3.5 3.5 0 1 0 -7 0zM1102.5 490 a3.5 3.5 0 1 0 7 0 a3.5 3.5 0 1 0 -7 0zM94.5 434 a3.5 3.5 0 1 0 7 0 a3.5 3.5 0 1 0 -7 0zM738.5 350 a3.5 3.5 0 1 0 7 0 a3.5 3.5 0 1 0 -7 0zM962.5 518 a3.5 3.5 0 1 0 7 0 a3.5 3.5 0 1 0 -7 0zM990.5 434 a3.5 3.5 0 1 0 7 0 a3.5 3.5 0 1 0 -7 0zM934.5 518 a3.5 3.5 0 1 0 7 0 a3.5 3.5 0 1 0 -7 0zM878.5 434 a3.5 3.5 0 1 0 7 0 a3.5 3.5 0 1 0 -7 0z" fill="black"></path>
            <path d="M906.5 98 a3.5 3.5 0 1 0 7 0 a3.5 3.5 0 1 0 -7 0zM654.5 70 a3.5 3.5 0 1 0 7 0 a3.5 3.5 0 1 0 -7 0zM990.5 70 a3.5 3.5 0 1 0 7 0 a3.5 3.5 0 1 0 -7 0zM514.5 70 a3.5 3.5 0 1 0 7 0 a3.5 3.5 0 1 0 -7 0zM570.5 126 a3.5 3.5 0 1 0 7 0 a3.5 3.5 0 1 0 -7 0zM822.5 70 a3.5 3.5 0 1 0 7 0 a3.5 3.5 0 1 0 -7 0zM262.5 126 a3.5 3.5 0 1 0 7 0 a3.5 3.5 0 1 0 -7 0zM122.5 126 a3.5 3.5 0 1 0 7 0 a3.5 3.5 0 1 0 -7 0zM290.5 154 a3.5 3.5 0 1 0 7 0 a3.5 3.5 0 1 0 -7 0z" fill="black"></path>
            <path d="M654.5 490 a3.5 3.5 0 1 0 7 0 a3.5 3.5 0 1 0 -7 0zM570.5 518 a3.5 3.5 0 1 0 7 0 a3.5 3.5 0 1 0 -7 0zM66.5 434 a3.5 3.5 0 1 0 7 0 a3.5 3.5 0 1 0 -7 0zM374.5 490 a3.5 3.5 0 1 0 7 0 a3.5 3.5 0 1 0 -7 0zM234.5 490 a3.5 3.5 0 1 0 7 0 a3.5 3.5 0 1 0 -7 0zM262.5 518 a3.5 3.5 0 1 0 7 0 a3.5 3.5 0 1 0 -7 0zM206.5 518 a3.5 3.5 0 1 0 7 0 a3.5 3.5 0 1 0 -7 0z" fill="black"></path>
            <path d="M346.5 70 a3.5 3.5 0 1 0 7 0 a3.5 3.5 0 1 0 -7 0zM94.5 126 a3.5 3.5 0 1 0 7 0 a3.5 3.5 0 1 0 -7 0zM206.5 126 a3.5 3.5 0 1 0 7 0 a3.5 3.5 0 1 0 -7 0zM290.5 70 a3.5 3.5 0 1 0 7 0 a3.5 3.5 0 1 0 -7 0z" fill="black"></path>
        </mask>
    </defs>
</svg>